<svg xmlns="http://www.w3.org/2000/svg" style="display:none" aria-hidden="true">

  <symbol id="dv-sort-asc" viewBox="0 0 24 24">
    <path d="M12 4l-8 8h5v8h6v-8h5z"/>
  </symbol>

  <symbol id="dv-sort-desc" viewBox="0 0 24 24">
    <path d="M12 20l8-8h-5V4H9v8H4z"/>
  </symbol>

  <symbol id="dv-sort-none" viewBox="0 0 24 24">
    <path d="M7 10l5-5 5 5z"/>
    <path d="M7 14l5 5 5-5z"/>
  </symbol>

  <symbol id="dv-filter" viewBox="0 0 24 24">
    <path d="M10 18h4v-2h-4v2zM3 6v2h18V6H3zm3 7h12v-2H6v2z"/>
  </symbol>

  <symbol id="dv-expand" viewBox="0 0 24 24">
    <path d="M8 5l8 7-8 7z"/>
  </symbol>

  <symbol id="dv-reload" viewBox="0 0 24 24">
    <path d="M17.65 6.35A7.958 7.958 0 0 0 12 4c-4.42 0-7.99 3.58-7.99 8s3.57 8 7.99 8c3.73 0 6.84-2.55 7.73-6h-2.08A5.99 5.99 0 0 1 12 18c-3.31 0-6-2.69-6-6s2.69-6 6-6c1.66 0 3.14.69 4.22 1.78L13 11h7V4l-2.35 2.35z"/>
  </symbol>

</svg>
